<svg width="1689" height="1454" viewBox="0 0 1689 1454" fill="none" xmlns="http://www.w3.org/2000/svg">
<path d="M1631.67 516C1631.67 769.315 1426.31 974.667 1173 974.667C919.684 974.667 714.332 769.315 714.332 516C714.332 262.685 919.684 57.3334 1173 57.3334C1426.31 57.3334 1631.67 262.685 1631.67 516ZM745.93 516C745.93 751.864 937.135 943.069 1173 943.069C1408.86 943.069 1600.07 751.864 1600.07 516C1600.07 280.136 1408.86 88.9311 1173 88.9311C937.135 88.9311 745.93 280.136 745.93 516Z" fill="#D9D9D9"/>
<path d="M1574.33 516C1574.33 737.65 1394.65 917.333 1173 917.333C951.351 917.333 771.668 737.65 771.668 516C771.668 294.35 951.351 114.667 1173 114.667C1394.65 114.667 1574.33 294.35 1574.33 516ZM802.634 516C802.634 720.548 968.453 886.367 1173 886.367C1377.55 886.367 1543.37 720.548 1543.37 516C1543.37 311.452 1377.55 145.633 1173 145.633C968.453 145.633 802.634 311.452 802.634 516Z" fill="#D9D9D9"/>
<path d="M1517 516C1517 705.986 1362.99 860 1173 860C983.014 860 829 705.986 829 516C829 326.014 983.014 172 1173 172C1362.99 172 1517 326.014 1517 516ZM855.543 516C855.543 691.327 997.673 833.457 1173 833.457C1348.33 833.457 1490.46 691.327 1490.46 516C1490.46 340.673 1348.33 198.543 1173 198.543C997.673 198.543 855.543 340.673 855.543 516Z" fill="#D9D9D9"/>
<path d="M1689 516C1689 800.979 1457.98 1032 1173 1032C888.021 1032 657 800.979 657 516C657 231.021 888.021 0 1173 0C1457.98 0 1689 231.021 1689 516ZM690.231 516C690.231 782.626 906.374 998.769 1173 998.769C1439.63 998.769 1655.77 782.626 1655.77 516C1655.77 249.374 1439.63 33.2313 1173 33.2313C906.374 33.2313 690.231 249.374 690.231 516Z" fill="#D9D9D9"/>
<path d="M983.165 933.5C983.165 1189.02 776.022 1396.17 520.499 1396.17C264.975 1396.17 57.832 1189.02 57.832 933.5C57.832 677.976 264.975 470.833 520.499 470.833C776.022 470.833 983.165 677.976 983.165 933.5ZM89.7054 933.5C89.7054 1171.42 282.578 1364.29 520.499 1364.29C758.419 1364.29 951.292 1171.42 951.292 933.5C951.292 695.579 758.419 502.707 520.499 502.707C282.578 502.707 89.7054 695.579 89.7054 933.5Z" fill="#D9D9D9"/>
<path d="M925.335 933.5C925.335 1157.08 744.085 1338.33 520.501 1338.33C296.918 1338.33 115.668 1157.08 115.668 933.5C115.668 709.917 296.918 528.667 520.501 528.667C744.085 528.667 925.335 709.917 925.335 933.5ZM146.905 933.5C146.905 1139.83 314.169 1307.1 520.501 1307.1C726.833 1307.1 894.098 1139.83 894.098 933.5C894.098 727.168 726.833 559.903 520.501 559.903C314.169 559.903 146.905 727.168 146.905 933.5Z" fill="#D9D9D9"/>
<path d="M867.5 933.5C867.5 1125.14 712.143 1280.5 520.5 1280.5C328.857 1280.5 173.5 1125.14 173.5 933.5C173.5 741.857 328.857 586.5 520.5 586.5C712.143 586.5 867.5 741.857 867.5 933.5ZM200.274 933.5C200.274 1110.36 343.644 1253.73 520.5 1253.73C697.356 1253.73 840.726 1110.36 840.726 933.5C840.726 756.644 697.356 613.274 520.5 613.274C343.644 613.274 200.274 756.644 200.274 933.5Z" fill="#D9D9D9"/>
<path d="M1041 933.5C1041 1220.96 807.964 1454 520.5 1454C233.036 1454 0 1220.96 0 933.5C0 646.036 233.036 413 520.5 413C807.964 413 1041 646.036 1041 933.5ZM33.5211 933.5C33.5211 1202.45 251.549 1420.48 520.5 1420.48C789.451 1420.48 1007.48 1202.45 1007.48 933.5C1007.48 664.549 789.451 446.521 520.5 446.521C251.549 446.521 33.5211 664.549 33.5211 933.5Z" fill="#D9D9D9"/>
<path d="M1029.48 547.25V498.617C1029.48 497.602 1029.85 496.742 1030.58 496.039C1031.31 495.336 1032.18 494.984 1033.2 494.984H1078.23C1079.25 494.984 1080.11 495.349 1080.81 496.078C1081.54 496.807 1081.91 497.68 1081.91 498.695V502.367C1081.91 503.383 1081.54 504.255 1080.81 504.984C1080.11 505.688 1079.25 506.039 1078.23 506.039H1044.21V517.406H1073.51C1074.52 517.406 1075.38 517.771 1076.09 518.5C1076.82 519.203 1077.18 520.062 1077.18 521.078V524.75C1077.18 525.766 1076.82 526.638 1076.09 527.367C1075.38 528.07 1074.52 528.422 1073.51 528.422H1044.21V539.945H1078.16C1079.15 539.945 1079.99 540.297 1080.7 541C1081.4 541.703 1081.75 542.562 1081.75 543.578V547.328C1081.75 548.344 1081.39 549.216 1080.66 549.945C1079.93 550.648 1079.05 551 1078.04 551H1033.2C1032.18 551 1031.31 550.648 1030.58 549.945C1029.85 549.216 1029.48 548.318 1029.48 547.25ZM1109.02 551.781C1101.72 551.781 1096.05 549.906 1091.98 546.156C1087.92 542.406 1085.89 536.898 1085.89 529.633C1085.89 522.341 1087.91 516.82 1091.95 513.07C1095.98 509.294 1101.59 507.406 1108.78 507.406C1115.99 507.406 1121.53 508.552 1125.38 510.844C1129.26 513.135 1131.2 516.521 1131.2 521C1131.2 521.703 1130.97 522.276 1130.5 522.719C1130.06 523.161 1129.48 523.383 1128.78 523.383H1122.96C1121.19 523.383 1119.69 522.432 1118.47 520.531C1116.93 518.083 1114.21 516.859 1110.3 516.859C1106.42 516.859 1103.7 517.862 1102.14 519.867C1100.6 521.846 1099.84 525.089 1099.84 529.594C1099.84 534.099 1100.63 537.354 1102.22 539.359C1103.83 541.365 1106.62 542.367 1110.58 542.367C1114.56 542.367 1117.32 541.143 1118.86 538.695C1120.08 536.768 1121.58 535.805 1123.35 535.805H1129.17C1129.88 535.805 1130.45 536.039 1130.89 536.508C1131.36 536.951 1131.59 537.51 1131.59 538.188C1131.59 542.667 1129.65 546.052 1125.77 548.344C1121.92 550.635 1116.33 551.781 1109.02 551.781ZM1141.67 546.156C1137.61 542.406 1135.58 536.885 1135.58 529.594C1135.58 522.276 1137.61 516.755 1141.67 513.031C1145.73 509.281 1151.57 507.406 1159.17 507.406C1166.8 507.406 1172.65 509.281 1176.71 513.031C1180.77 516.755 1182.8 522.276 1182.8 529.594C1182.8 536.885 1180.77 542.406 1176.71 546.156C1172.65 549.906 1166.8 551.781 1159.17 551.781C1151.57 551.781 1145.73 549.906 1141.67 546.156ZM1151.55 519.438C1149.94 521.547 1149.13 524.919 1149.13 529.555C1149.13 534.19 1149.94 537.576 1151.55 539.711C1153.17 541.846 1155.71 542.914 1159.17 542.914C1162.66 542.914 1165.21 541.846 1166.83 539.711C1168.47 537.576 1169.29 534.19 1169.29 529.555C1169.29 524.919 1168.47 521.547 1166.83 519.438C1165.21 517.328 1162.66 516.273 1159.17 516.273C1155.71 516.273 1153.17 517.328 1151.55 519.438ZM1190.81 547.25V498.617C1190.81 497.602 1191.18 496.742 1191.91 496.039C1192.64 495.336 1193.51 494.984 1194.52 494.984H1239.56C1240.58 494.984 1241.44 495.349 1242.14 496.078C1242.87 496.807 1243.23 497.68 1243.23 498.695V502.367C1243.23 503.383 1242.87 504.255 1242.14 504.984C1241.44 505.688 1240.58 506.039 1239.56 506.039H1205.54V519.789H1233.23C1234.25 519.789 1235.11 520.154 1235.81 520.883C1236.54 521.612 1236.91 522.471 1236.91 523.461V527.172C1236.91 528.188 1236.54 529.06 1235.81 529.789C1235.11 530.492 1234.25 530.844 1233.23 530.844H1205.54V547.25C1205.54 548.318 1205.17 549.216 1204.45 549.945C1203.74 550.648 1202.88 551 1201.87 551H1194.52C1193.51 551 1192.64 550.648 1191.91 549.945C1191.18 549.216 1190.81 548.318 1190.81 547.25ZM1248.86 500.023V498.695C1248.86 497.315 1249.25 496.221 1250.03 495.414C1250.84 494.607 1251.95 494.203 1253.35 494.203H1258.2C1259.58 494.203 1260.67 494.607 1261.48 495.414C1262.28 496.195 1262.69 497.289 1262.69 498.695V500.023C1262.69 501.404 1262.28 502.497 1261.48 503.305C1260.7 504.112 1259.6 504.516 1258.2 504.516H1253.35C1251.97 504.516 1250.88 504.112 1250.07 503.305C1249.26 502.497 1248.86 501.404 1248.86 500.023ZM1249.02 548.617V511.547C1249.02 510.844 1249.24 510.271 1249.68 509.828C1250.15 509.385 1250.72 509.164 1251.4 509.164H1260.15C1260.85 509.164 1261.42 509.398 1261.87 509.867C1262.31 510.31 1262.53 510.87 1262.53 511.547V548.617C1262.53 549.32 1262.3 549.893 1261.83 550.336C1261.39 550.779 1260.83 551 1260.15 551H1251.4C1250.7 551 1250.12 550.779 1249.68 550.336C1249.24 549.893 1249.02 549.32 1249.02 548.617ZM1272.3 548.617V510.609C1272.3 509.906 1272.52 509.333 1272.96 508.891C1273.43 508.422 1274 508.188 1274.68 508.188H1283.43C1284.11 508.188 1284.67 508.422 1285.11 508.891C1285.58 509.333 1285.81 509.906 1285.81 510.609V513.07C1290.29 509.294 1295.06 507.406 1300.11 507.406C1305.19 507.406 1309.32 508.956 1312.49 512.055C1315.67 515.128 1317.26 519.841 1317.26 526.195V548.617C1317.26 549.294 1317.02 549.867 1316.55 550.336C1316.11 550.779 1315.54 551 1314.84 551H1306.12C1305.45 551 1304.88 550.779 1304.41 550.336C1303.96 549.867 1303.74 549.294 1303.74 548.617V526.195C1303.74 519.971 1301.26 516.859 1296.28 516.859C1293.03 516.859 1289.54 518.721 1285.81 522.445V548.617C1285.81 549.294 1285.58 549.867 1285.11 550.336C1284.67 550.779 1284.11 551 1283.43 551H1274.68C1274 551 1273.43 550.779 1272.96 550.336C1272.52 549.867 1272.3 549.294 1272.3 548.617Z" fill="white"/>
</svg>
